<svg class="svg-icon" style="width: 1em;height: 1em;vertical-align: middle;fill: currentColor;overflow: hidden;" viewBox="0 0 1024 1024" version="1.1" xmlns="http://www.w3.org/2000/svg"><path d="M512 384a128 128 0 1 0 0 256 128 128 0 0 0 0-256z m0 85.333333a42.666667 42.666667 0 1 1 0 85.333334 42.666667 42.666667 0 0 1 0-85.333334z" fill="#fff" /><path d="M904.533333 486.4a42.666667 42.666667 0 0 1 71.210667 46.72l-2.944 4.48-65.152 86.826667A512 512 0 0 1 512 811.434667a512.512 512.512 0 0 1-386.816-176.682667L115.2 622.933333l-64-85.333333a42.666667 42.666667 0 0 1 64.810667-55.296l3.456 4.096 62.848 83.84A426.666667 426.666667 0 0 0 512 726.101333a426.24 426.24 0 0 0 319.829333-144.128l8.704-10.24 64-85.333333z" fill="#fff" /><path d="M512 212.565333c148.096 0 288.682667 64.128 386.816 176.682667l9.984 11.818667 64 85.333333a42.666667 42.666667 0 0 1-64.810667 55.296L904.533333 537.6l-62.848-83.84A426.666667 426.666667 0 0 0 512 297.898667a426.24 426.24 0 0 0-319.829333 144.128l-8.704 10.24-64 85.333333a42.666667 42.666667 0 0 1-71.210667-46.72L51.2 486.4l65.152-86.826667A512 512 0 0 1 512 212.565333z" fill="#fff" /></svg>